<svg xmlns="http://www.w3.org/2000/svg" width="50.333" height="50.333" viewBox="0 0 50.333 50.333">
  <g id="inspeccion" transform="translate(-1 -1)">
    <path id="Trazado_99511" data-name="Trazado 99511" d="M34.027,43.72l-2.178-1.361v-11.2a8.62,8.62,0,0,0-7.2-8.5l-2.7-.451-.5-1.874a6.526,6.526,0,0,0,2.626-3.093h.479a3.239,3.239,0,0,0,2.651-5.111l.009-.017A5.6,5.6,0,0,0,27.79,9.62a5.535,5.535,0,0,0-3.076-4.977l-.18-.09A3.642,3.642,0,0,0,20.9,1H15.613A5.689,5.689,0,0,0,9.941,6.336l-.158.158a5.039,5.039,0,0,0-1.218,5.155l.222.664a3.218,3.218,0,0,0-.48,1.676,3.251,3.251,0,0,0,3.247,3.247h.478a6.522,6.522,0,0,0,2.626,3.093l-.5,1.874-2.7.451a8.619,8.619,0,0,0-7.2,8.5v9.368A5.678,5.678,0,0,0,6.683,51.333h21.34l6-3.752a2.277,2.277,0,0,0,0-3.861Zm-6-3.752H26.978V35.1h3.247v6.247ZM12.366,41.591H26.978v3.247H12.366Zm-1.624,0v8.118H9.118V41.591Zm1.624,4.871H26.978v3.247H12.366ZM22.547,23.951,21,28.557l-1.864-2.33,2.438-2.438Zm2-8.338h-.056a6.533,6.533,0,0,0,.056-.812V12.366a1.624,1.624,0,1,1,0,3.247Zm-12.989,0a1.624,1.624,0,1,1,0-3.247V14.8a6.533,6.533,0,0,0,.056.812Zm.013-4.871h-.013A3.205,3.205,0,0,0,10.1,11.1a3.4,3.4,0,0,1,.832-3.46l.624-.624V6.683a4.064,4.064,0,0,1,4.059-4.059H20.9a2.019,2.019,0,0,1,.64,3.934l-.5.166.512,1.54.5-.166a3.633,3.633,0,0,0,2.13-1.888,3.911,3.911,0,0,1,1.711,4.836,3.223,3.223,0,0,0-1.352-.3V9.118H20.867A14.631,14.631,0,0,1,14.353,7.58L13.989,7.4l-.363.182a3.721,3.721,0,0,0-2.06,3.161ZM13.177,14.8V10.933a2.112,2.112,0,0,1,.856-1.7,16.277,16.277,0,0,0,6.834,1.513h2.052V14.8a4.871,4.871,0,1,1-9.742,0ZM18.048,21.3a6.45,6.45,0,0,0,1.892-.283l.449,1.664-2.341,2.342-2.341-2.341.449-1.664a6.477,6.477,0,0,0,1.892.283Zm-3.526,2.493,2.438,2.438L15.1,28.557,13.549,23.95ZM8.986,25.336a6.951,6.951,0,0,1,2.73-1.08l.211-.035,2.578,7.673,3.543-4.428,3.543,4.428,2.578-7.673.211.035a7,7,0,0,1,5.845,6.9v2.317H26.978V30.226H25.355v9.742H10.742V30.226H9.118v3.247H5.871V31.156a6.984,6.984,0,0,1,3.115-5.82ZM5.871,35.1H9.118v4.871H6.683a5.7,5.7,0,0,0-.812.065ZM2.624,45.65a4.064,4.064,0,0,1,4.059-4.059h.812v8.118H6.683A4.064,4.064,0,0,1,2.624,45.65Zm30.542.554L28.6,49.057V42.245L33.166,45.1a.654.654,0,0,1,0,1.108Z" fill="#5e448f"/>
    <path id="Trazado_99512" data-name="Trazado 99512" d="M45,59.989H59.613V47H45Zm1.624-11.366H57.989v9.742H46.624Z" transform="translate(-8.28 -8.656)" fill="#5e448f"/>
    <path id="Trazado_99513" data-name="Trazado 99513" d="M51.3,55.4,49.441,53.54l-1.148,1.148L51.3,57.7l6.257-6.257-1.148-1.148Z" transform="translate(-8.899 -9.276)" fill="#5e448f"/>
    <path id="Trazado_99514" data-name="Trazado 99514" d="M45,29V41.989H59.613V29ZM57.989,40.366H46.624V30.624H57.989Z" transform="translate(-8.28 -5.269)" fill="#5e448f"/>
    <path id="Trazado_99515" data-name="Trazado 99515" d="M57.559,33.441l-1.148-1.148L51.3,37.4,49.441,35.54l-1.148,1.148L51.3,39.7Z" transform="translate(-8.899 -5.889)" fill="#5e448f"/>
    <path id="Trazado_99516" data-name="Trazado 99516" d="M24.495,18H22.871a1.624,1.624,0,0,1-3.247,0H18a3.247,3.247,0,0,0,6.495,0Z" transform="translate(-3.199 -3.199)" fill="#5e448f"/>
    <circle id="Elipse_3953" data-name="Elipse 3953" cx="0.5" cy="0.5" r="0.5" transform="translate(15 12)" fill="#5e448f"/>
    <circle id="Elipse_3954" data-name="Elipse 3954" cx="0.5" cy="0.5" r="0.5" transform="translate(20 12)" fill="#5e448f"/>
    <path id="Trazado_99517" data-name="Trazado 99517" d="M47,11H58.366v1.624H47Z" transform="translate(-8.656 -1.882)" fill="#5e448f"/>
    <path id="Trazado_99518" data-name="Trazado 99518" d="M47,15H58.366v1.624H47Z" transform="translate(-8.656 -2.634)" fill="#5e448f"/>
    <path id="Trazado_99519" data-name="Trazado 99519" d="M47,19H58.366v1.624H47Z" transform="translate(-8.656 -3.387)" fill="#5e448f"/>
    <path id="Trazado_99520" data-name="Trazado 99520" d="M47,23h1.624v1.624H47Z" transform="translate(-8.656 -4.14)" fill="#5e448f"/>
    <path id="Trazado_99521" data-name="Trazado 99521" d="M51,23h1.624v1.624H51Z" transform="translate(-9.409 -4.14)" fill="#5e448f"/>
    <path id="Trazado_99522" data-name="Trazado 99522" d="M59,23h1.624v1.624H59Z" transform="translate(-10.914 -4.14)" fill="#5e448f"/>
    <path id="Trazado_99523" data-name="Trazado 99523" d="M55,23h1.624v1.624H55Z" transform="translate(-10.162 -4.14)" fill="#5e448f"/>
  </g>
</svg>
