<svg xmlns="http://www.w3.org/2000/svg" width="46.296" height="49.5" viewBox="0 0 46.296 49.5">
  <g id="gerente" transform="translate(-16.567)">
    <g id="Grupo_53399" data-name="Grupo 53399" transform="translate(16.567 0)">
      <path id="Trazado_99495" data-name="Trazado 99495" d="M42.919,32.033H41.456l-3.419-1.368v-1.78a8.74,8.74,0,0,0,3.974-6.614h.907a2.329,2.329,0,0,0,2.327-2.327v-3.2a2.329,2.329,0,0,0-2.327-2.327h-.877V12.738a6.336,6.336,0,0,0-3.434-5.627A5.531,5.531,0,0,0,30.76.621a.725.725,0,1,0,.669,1.286,4.035,4.035,0,0,1,1.88-.458A4.084,4.084,0,0,1,37.248,6.6a6.32,6.32,0,0,0-1.537-.19h-4.8a6.32,6.32,0,0,0-1.537.19,4.077,4.077,0,0,1-.14-1.066,4.035,4.035,0,0,1,.455-1.875A.725.725,0,0,0,28.4,2.988a5.533,5.533,0,0,0-.387,4.123,6.336,6.336,0,0,0-3.434,5.627v1.677H23.7a2.329,2.329,0,0,0-2.327,2.327v3.2A2.329,2.329,0,0,0,23.7,22.272h.907a8.741,8.741,0,0,0,3.974,6.614v1.78l-3.419,1.368H23.7a7.139,7.139,0,0,0-7.131,7.131v8.809A1.528,1.528,0,0,0,18.093,49.5h.936a.725.725,0,1,0,0-1.45h-.936a.076.076,0,0,1-.076-.076V39.165A5.688,5.688,0,0,1,23.7,33.484h1.111l.663,1.658-2.112,4.62a1.52,1.52,0,0,0,.705,2l1.079.539a.076.076,0,0,1,0,.136l-.777.388a1.526,1.526,0,0,0-.4,2.444l2.781,2.781H21.93a.725.725,0,0,0,0,1.45H48.524a1.528,1.528,0,0,0,1.526-1.526V39.165A7.139,7.139,0,0,0,42.919,32.033Zm-2.1,11.7.777.388a.076.076,0,0,1,.02.121L37.813,48.05H36.5l.626-7.1a1.514,1.514,0,0,0,.605.127,1.529,1.529,0,0,0,1.418-.96L40.4,37l1.537,3.363a.075.075,0,0,1-.035.1L40.823,41a1.526,1.526,0,0,0,0,2.73Zm-3.017-4.152a.076.076,0,0,1-.112.035l-.78-.52-.005,0L34.3,37.351l3.31-5.3,2.768,1.107ZM43.8,16.742v3.2a.878.878,0,0,1-.876.877h-.877V15.865h.877A.878.878,0,0,1,43.8,16.742ZM30.906,7.857h4.8a4.886,4.886,0,0,1,4.881,4.881v1.569a2.482,2.482,0,0,1-1.753-2.37v-1.6a.725.725,0,0,0-1.45,0,4.084,4.084,0,0,1-4.08,4.08H28.5a3.91,3.91,0,0,0-2.478.883v-2.56a4.886,4.886,0,0,1,4.881-4.881ZM22.822,19.945v-3.2a.878.878,0,0,1,.877-.877h.877v4.957H23.7A.878.878,0,0,1,22.822,19.945Zm3.2,1.6V18.341A2.481,2.481,0,0,1,28.5,15.865h4.8a5.525,5.525,0,0,0,4.454-2.257A3.94,3.94,0,0,0,40.592,15.8v5.75a7.283,7.283,0,1,1-14.566,0Zm7.283,8.733a8.686,8.686,0,0,0,3.279-.639v1.308L33.309,36.2l-3.279-5.247V29.641A8.688,8.688,0,0,0,33.309,30.28Zm-4.3,1.775,3.31,5.3-2.615,1.743,0,0-.778.519a.076.076,0,0,1-.112-.035l-2.568-6.419ZM25,44.243a.076.076,0,0,1,.02-.121l.777-.388a1.526,1.526,0,0,0,0-2.73l-1.079-.539a.075.075,0,0,1-.035-.1L26.217,37l1.247,3.118a1.522,1.522,0,0,0,2.028.83l.653,7.1H28.8Zm6.6,3.807-.734-7.987,2.442-1.628,2.443,1.629-.7,7.986Zm16.923,0h-8.66l2.781-2.781a1.526,1.526,0,0,0-.4-2.444l-.777-.388a.076.076,0,0,1,0-.136l1.079-.539a1.52,1.52,0,0,0,.705-2l-2.112-4.62.663-1.658h1.111A5.688,5.688,0,0,1,48.6,39.165v8.809a.076.076,0,0,1-.076.076Z" transform="translate(-16.567 0)" fill="#5e448f"/>
      <path id="Trazado_99496" data-name="Trazado 99496" d="M150.547,192.043v-.8a.725.725,0,0,0-1.45,0v.8a.725.725,0,0,0,1.45,0Z" transform="translate(-136.284 -172.098)" fill="#5e448f"/>
      <path id="Trazado_99497" data-name="Trazado 99497" d="M216.09,192.768a.725.725,0,0,0,.725-.725v-.8a.725.725,0,1,0-1.45,0v.8A.725.725,0,0,0,216.09,192.768Z" transform="translate(-196.145 -172.098)" fill="#5e448f"/>
      <path id="Trazado_99498" data-name="Trazado 99498" d="M165.9,243.553a.725.725,0,0,0-1.255-.726,1.678,1.678,0,0,1-2.907,0,.725.725,0,1,0-1.255.726,3.128,3.128,0,0,0,5.417,0Z" transform="translate(-146.482 -219.023)" fill="#5e448f"/>
      <path id="Trazado_99499" data-name="Trazado 99499" d="M383.36,82.833a2.327,2.327,0,1,0,2.327,2.327A2.329,2.329,0,0,0,383.36,82.833Zm0,3.2a.877.877,0,1,1,.877-.877A.877.877,0,0,1,383.36,86.036Z" transform="translate(-345.797 -74.825)" fill="#5e448f"/>
      <path id="Trazado_99500" data-name="Trazado 99500" d="M331.077,22.843,330.1,22.6l-.023-.057.518-.863a1.524,1.524,0,0,0-.23-1.864l-1.381-1.381a1.524,1.524,0,0,0-1.864-.229l-.863.518L326.2,18.7l-.244-.977a1.524,1.524,0,0,0-1.48-1.156h-1.953a1.524,1.524,0,0,0-1.48,1.156l-.244.977-.057.023-.863-.518a1.524,1.524,0,0,0-1.864.23l-1.381,1.381a1.524,1.524,0,0,0-.23,1.864l.518.863-.023.057-.977.244a1.524,1.524,0,0,0-1.156,1.48v1.953a1.524,1.524,0,0,0,1.156,1.48L316.9,28l.023.057-.518.863a1.524,1.524,0,0,0,.23,1.864l1.381,1.381a1.524,1.524,0,0,0,1.864.229l.863-.518.057.023.244.977a1.524,1.524,0,0,0,1.48,1.156h1.953a1.524,1.524,0,0,0,1.48-1.156l.244-.977.057-.023.863.518a1.524,1.524,0,0,0,1.864-.23l1.381-1.381a1.524,1.524,0,0,0,.229-1.864l-.518-.863L330.1,28l.977-.244a1.524,1.524,0,0,0,1.156-1.48V24.323a1.523,1.523,0,0,0-1.156-1.48Zm-.294,3.433a.076.076,0,0,1-.057.073l-1.346.336a.726.726,0,0,0-.51.467,5.669,5.669,0,0,1-.262.635.725.725,0,0,0,.03.691l.713,1.188a.076.076,0,0,1-.011.093l-1.381,1.381a.076.076,0,0,1-.093.012l-1.188-.713a.725.725,0,0,0-.691-.03,5.67,5.67,0,0,1-.634.262.725.725,0,0,0-.467.51l-.336,1.345a.076.076,0,0,1-.073.057h-1.953a.076.076,0,0,1-.073-.057l-.336-1.345a.726.726,0,0,0-.467-.51,5.661,5.661,0,0,1-.635-.262.725.725,0,0,0-.691.03l-1.188.713a.076.076,0,0,1-.093-.011l-1.381-1.381a.076.076,0,0,1-.012-.092l.713-1.188a.725.725,0,0,0,.03-.691,5.663,5.663,0,0,1-.262-.635.725.725,0,0,0-.51-.467l-1.345-.336a.076.076,0,0,1-.057-.073V24.323a.076.076,0,0,1,.057-.073l1.345-.336a.725.725,0,0,0,.51-.467,5.677,5.677,0,0,1,.262-.634.725.725,0,0,0-.03-.691l-.713-1.188a.076.076,0,0,1,.011-.093l1.381-1.381a.076.076,0,0,1,.092-.012l1.188.713a.725.725,0,0,0,.691.03,5.66,5.66,0,0,1,.635-.262.725.725,0,0,0,.467-.51l.336-1.345a.076.076,0,0,1,.074-.057h1.953a.076.076,0,0,1,.073.057l.336,1.345a.725.725,0,0,0,.467.51,5.667,5.667,0,0,1,.634.262.725.725,0,0,0,.691-.03l1.188-.713a.076.076,0,0,1,.093.011l1.381,1.381a.076.076,0,0,1,.011.093l-.713,1.188a.725.725,0,0,0-.03.691,5.666,5.666,0,0,1,.262.634.725.725,0,0,0,.51.467l1.345.336a.076.076,0,0,1,.057.073v1.953Z" transform="translate(-285.936 -14.964)" fill="#5e448f"/>
    </g>
  </g>
</svg>
