<svg xmlns="http://www.w3.org/2000/svg" width="84" height="84" viewBox="0 0 84 84">
  <g id="Grupo_53461" data-name="Grupo 53461" transform="translate(-337 -2218)">
    <rect id="Rectángulo_5075" data-name="Rectángulo 5075" width="84" height="84" rx="5" transform="translate(337 2218)" fill="#5e448f"/>
    <g id="XMLID_1423_" transform="translate(355 2235.937)">
      <g id="XMLID_2880_" transform="translate(0 0.063)">
        <g id="XMLID_924_" transform="translate(0 0)">
          <path id="XMLID_1259_" d="M43.4,334.961a4.372,4.372,0,0,0,.788-2.508v-.863a4.4,4.4,0,1,0-8.8,0v.863a4.372,4.372,0,0,0,.788,2.508,5.258,5.258,0,0,0-4.156,2.251,5.258,5.258,0,0,0-4.156-2.251,4.372,4.372,0,0,0,.788-2.508v-.863a4.4,4.4,0,1,0-8.8,0v.863a4.372,4.372,0,0,0,.788,2.508,5.258,5.258,0,0,0-4.162,2.26,5.259,5.259,0,0,0-4.162-2.26,4.372,4.372,0,0,0,.788-2.508v-.863a4.4,4.4,0,1,0-8.8,0v.863a4.372,4.372,0,0,0,.788,2.508A5.267,5.267,0,0,0,0,340.218v3.534a.947.947,0,0,0,.947.947H47.553a.947.947,0,0,0,.947-.947v-3.534A5.267,5.267,0,0,0,43.4,334.961Zm-6.114-3.371a2.5,2.5,0,1,1,5.009,0v.863a2.5,2.5,0,0,1-5.009,0Zm-15.531,0a2.5,2.5,0,1,1,5.009,0v.863a2.5,2.5,0,0,1-5.009,0v-.863Zm-15.543,0a2.5,2.5,0,1,1,5.009,0v.863a2.5,2.5,0,0,1-5.009,0ZM15.531,342.8H1.894v-2.587a3.371,3.371,0,0,1,3.367-3.367h6.9a3.371,3.371,0,0,1,3.367,3.367V342.8Zm1.906-2.587a3.371,3.371,0,0,1,3.367-3.367h6.9a3.371,3.371,0,0,1,3.367,3.367V342.8H17.437v-2.587ZM46.606,342.8H32.969v-2.587a3.371,3.371,0,0,1,3.367-3.367h6.9a3.371,3.371,0,0,1,3.367,3.367V342.8Z" transform="translate(0 -296.211)" fill="#fff"/>
          <path id="XMLID_1309_" d="M177.947,268.844a.947.947,0,1,0,.669.277A.954.954,0,0,0,177.947,268.844Z" transform="translate(-160.238 -243.39)" fill="#fff"/>
          <path id="XMLID_1315_" d="M54.947,27.411h7.86a.947.947,0,1,0,0-1.894H55.894V18.811a3.2,3.2,0,0,1,3.193-3.193h1.566v4.427a.947.947,0,0,0,1.6.683l3.393-3.26V20.32a.947.947,0,0,0,1.894,0V17.469l3.393,3.26a.947.947,0,0,0,1.6-.683V15.618H74.1A3.2,3.2,0,0,1,77.3,18.811v6.706H70.384a.947.947,0,1,0,0,1.894h7.86a.947.947,0,0,0,.947-.947V18.811A5.093,5.093,0,0,0,74.1,13.724H71a6.049,6.049,0,0,0,1.672-4.178V6.135a6.072,6.072,0,0,0-12.145,0V9.546A6.049,6.049,0,0,0,62.2,13.724H59.087A5.093,5.093,0,0,0,54,18.811v7.653A.947.947,0,0,0,54.947,27.411Zm7.6-11.793h2.294l-2.294,2.2v-2.2Zm8.1,2.2-2.294-2.2h2.294ZM62.417,6.135A4.178,4.178,0,0,1,70.751,5.7L68.772,4.538a.947.947,0,0,0-1.206.208,4.673,4.673,0,0,1-3.59,1.676H62.417V6.135Zm0,3.411V8.316h1.559A6.56,6.56,0,0,0,68.46,6.552l2.314,1.359V9.546a4.178,4.178,0,0,1-8.357,0Z" transform="translate(-48.886 -0.063)" fill="#fff"/>
          <path id="XMLID_1330_" d="M318.619,15.471a.947.947,0,0,0,.91.058l3.21-1.507H334.5a2.035,2.035,0,0,0,2.032-2.032V2.1A2.035,2.035,0,0,0,334.5.063H320.212A2.035,2.035,0,0,0,318.18,2.1V14.671A.947.947,0,0,0,318.619,15.471ZM320.074,2.1a.138.138,0,0,1,.138-.138H334.5a.138.138,0,0,1,.138.138v9.894a.138.138,0,0,1-.138.138H322.528a.948.948,0,0,0-.4.09l-2.052.964Z" transform="translate(-288.047 -0.063)" fill="#fff"/>
          <path id="XMLID_1331_" d="M358.381,44.533h9.026a.947.947,0,0,0,0-1.894h-9.026a.947.947,0,0,0,0,1.894Z" transform="translate(-323.584 -38.607)" fill="#fff"/>
          <path id="XMLID_1332_" d="M358.381,84.533h6.227a.947.947,0,1,0,0-1.894h-6.227a.947.947,0,0,0,0,1.894Z" transform="translate(-323.584 -74.819)" fill="#fff"/>
        </g>
      </g>
    </g>
  </g>
</svg>
