<svg xmlns="http://www.w3.org/2000/svg" width="49.499" height="49.5" viewBox="0 0 49.499 49.5">
  <g id="entrevista" transform="translate(-0.007)">
    <g id="Grupo_53401" data-name="Grupo 53401" transform="translate(0.007 10.476)">
      <g id="Grupo_53400" data-name="Grupo 53400" transform="translate(0)">
        <path id="Trazado_99501" data-name="Trazado 99501" d="M48.539,134.037H45.252v-2.3a5.6,5.6,0,0,0-1.82-4.133V116.989a8.816,8.816,0,0,0-17.629,0V127.6a5.6,5.6,0,0,0-1.82,4.133v2.3H22a.967.967,0,1,0,0,1.934h4.5v6.187a.967.967,0,0,0,.967.967h3.384a.967.967,0,0,0,0-1.934H28.43V135.97H40.805v5.221h-2.61a.967.967,0,0,0,0,1.934h3.577a.967.967,0,0,0,.967-.967V135.97h4.834v9.474H23.6v-3.12a6.161,6.161,0,0,0-5.041-6.058l-2.539-.469a1.173,1.173,0,0,1-.337-.118.968.968,0,0,0-.192-.127,1.174,1.174,0,0,1-.432-.9,6.577,6.577,0,0,0,3.32-5.709v-3.732a6.574,6.574,0,1,0-13.148,0v3.732a6.577,6.577,0,0,0,3.319,5.708,1.174,1.174,0,0,1-.435.9.972.972,0,0,0-.186.123,1.172,1.172,0,0,1-.34.12l-2.538.469a6.161,6.161,0,0,0-5.041,6.058v4.087a.967.967,0,0,0,.967.967H48.539a.967.967,0,0,0,.967-.967V135A.967.967,0,0,0,48.539,134.037Zm-20.8-17.048h0a6.883,6.883,0,0,1,13.762,0v9.456a5.619,5.619,0,0,0-.832-.222L38.4,125.8a.946.946,0,0,1-.765-.808,6,6,0,0,0,2.977-5.176v-3.112a.967.967,0,0,0-.477-.834L36.771,113.9a.967.967,0,0,0-1.231.213,4.546,4.546,0,0,1-3.492,1.63H29.59a.967.967,0,0,0-.967.967v3.112a6,6,0,0,0,2.976,5.175.946.946,0,0,1-.765.808l-2.266.419a5.615,5.615,0,0,0-.832.222v-9.455Zm8.761,6.428a.961.961,0,0,0-.447.2,4.05,4.05,0,0,1-2.868,0,.963.963,0,0,0-.444-.2,4.064,4.064,0,0,1-2.181-3.6v-2.145h1.491a6.473,6.473,0,0,0,4.4-1.722l2.226,1.308v2.559A4.064,4.064,0,0,1,36.5,123.417Zm.028,3.482-1.908,2.6-1.909-2.6a2.88,2.88,0,0,0,.713-1.2,6.01,6.01,0,0,0,2.39,0A2.878,2.878,0,0,0,36.526,126.9Zm6.793,7.138h-17.4v-2.3a3.671,3.671,0,0,1,3-3.61l2.016-.373,2.9,3.958a.967.967,0,0,0,1.559,0l2.9-3.957,2.016.373a3.671,3.671,0,0,1,3,3.61v2.3Zm-36.157-5.09v-3.732a4.641,4.641,0,1,1,9.281,0v3.732a4.641,4.641,0,1,1-9.281,0Zm6.22,6.937-1.579.45-1.58-.451a3.093,3.093,0,0,0,.173-.515,6.538,6.538,0,0,0,2.813,0A3.085,3.085,0,0,0,13.381,135.884Zm8.282,9.561H1.941V143.9H8.552a.967.967,0,1,0,0-1.934h-6.6a4.228,4.228,0,0,1,3.443-3.8l2.538-.469a3.107,3.107,0,0,0,.752-.241l2.847.812a.965.965,0,0,0,.53,0l2.847-.812a3.109,3.109,0,0,0,.752.241l2.539.469a4.228,4.228,0,0,1,3.459,4.157Z" transform="translate(-0.007 -108.354)" fill="#5e448f"/>
      </g>
    </g>
    <g id="Grupo_53403" data-name="Grupo 53403" transform="translate(0.007)">
      <g id="Grupo_53402" data-name="Grupo 53402">
        <path id="Trazado_99502" data-name="Trazado 99502" d="M25.772,0H13.688A3.823,3.823,0,0,0,9.869,3.819v1.4H3.827A3.823,3.823,0,0,0,.008,9.041v5.317a3.823,3.823,0,0,0,3.819,3.819h.048v3.263a.967.967,0,0,0,1.65.684l3.946-3.946h6.439a3.823,3.823,0,0,0,3.819-3.819v-2.37h1.5l2.843,2.843a.967.967,0,0,0,1.65-.684V11.988h.048a3.823,3.823,0,0,0,3.819-3.819V3.819A3.823,3.823,0,0,0,25.772,0ZM17.8,14.358a1.887,1.887,0,0,1-1.885,1.885H9.072a.967.967,0,0,0-.684.283L5.809,19.105v-1.9a.967.967,0,0,0-.967-.967H3.827a1.887,1.887,0,0,1-1.885-1.885V9.041A1.887,1.887,0,0,1,3.827,7.155H15.911A1.887,1.887,0,0,1,17.8,9.041Zm9.861-6.189a1.887,1.887,0,0,1-1.885,1.885H24.757a.967.967,0,0,0-.967.967v.792l-1.476-1.476a.967.967,0,0,0-.684-.283h-1.9V9.041a3.823,3.823,0,0,0-3.819-3.819H11.8v-1.4a1.887,1.887,0,0,1,1.885-1.885H25.772a1.887,1.887,0,0,1,1.885,1.885v4.35Z" transform="translate(-0.008 0)" fill="#5e448f"/>
      </g>
    </g>
    <g id="Grupo_53405" data-name="Grupo 53405" transform="translate(31.471 20.63)">
      <g id="Grupo_53404" data-name="Grupo 53404">
        <path id="Trazado_99503" data-name="Trazado 99503" d="M327.1,213.671a.966.966,0,1,0,.283.684A.974.974,0,0,0,327.1,213.671Z" transform="translate(-325.45 -213.388)" fill="#5e448f"/>
      </g>
    </g>
    <g id="Grupo_53407" data-name="Grupo 53407" transform="translate(35.831 20.63)">
      <g id="Grupo_53406" data-name="Grupo 53406">
        <path id="Trazado_99504" data-name="Trazado 99504" d="M372.2,213.671a.966.966,0,1,0,.283.684A.974.974,0,0,0,372.2,213.671Z" transform="translate(-370.549 -213.388)" fill="#5e448f"/>
      </g>
    </g>
    <g id="Grupo_53409" data-name="Grupo 53409" transform="translate(32.83 22.825)">
      <g id="Grupo_53408" data-name="Grupo 53408">
        <path id="Trazado_99505" data-name="Trazado 99505" d="M342.781,236.376a.967.967,0,0,0-1.367,0,.18.18,0,0,1-.254,0,.967.967,0,0,0-1.367,1.367,2.116,2.116,0,0,0,2.989,0A.967.967,0,0,0,342.781,236.376Z" transform="translate(-339.509 -236.093)" fill="#5e448f"/>
      </g>
    </g>
    <g id="Grupo_53411" data-name="Grupo 53411" transform="translate(33.651 43.313)">
      <g id="Grupo_53410" data-name="Grupo 53410">
        <path id="Trazado_99506" data-name="Trazado 99506" d="M349.65,448.285a.966.966,0,1,0,.283.684A.976.976,0,0,0,349.65,448.285Z" transform="translate(-347.999 -448.002)" fill="#5e448f"/>
      </g>
    </g>
    <g id="Grupo_53413" data-name="Grupo 53413" transform="translate(3.874 8.992)">
      <g id="Grupo_53412" data-name="Grupo 53412">
        <path id="Trazado_99507" data-name="Trazado 99507" d="M48.516,93.011H40.975a.967.967,0,1,0,0,1.934h7.541a.967.967,0,1,0,0-1.934Z" transform="translate(-40.008 -93.011)" fill="#5e448f"/>
      </g>
    </g>
    <g id="Grupo_53415" data-name="Grupo 53415" transform="translate(13.832 12.473)">
      <g id="Grupo_53414" data-name="Grupo 53414">
        <path id="Trazado_99508" data-name="Trazado 99508" d="M144.655,129.293a.966.966,0,1,0,.283.684A.974.974,0,0,0,144.655,129.293Z" transform="translate(-143.005 -129.01)" fill="#5e448f"/>
      </g>
    </g>
    <g id="Grupo_53417" data-name="Grupo 53417" transform="translate(3.874 12.473)">
      <g id="Grupo_53416" data-name="Grupo 53416">
        <path id="Trazado_99509" data-name="Trazado 99509" d="M47.355,129.01H40.975a.967.967,0,1,0,0,1.934h6.381a.967.967,0,1,0,0-1.934Z" transform="translate(-40.008 -129.01)" fill="#5e448f"/>
      </g>
    </g>
    <g id="Grupo_53419" data-name="Grupo 53419" transform="translate(10.957 44.086)">
      <g id="Grupo_53418" data-name="Grupo 53418">
        <path id="Trazado_99510" data-name="Trazado 99510" d="M114.916,456.284a.964.964,0,1,0,.284.684A.972.972,0,0,0,114.916,456.284Z" transform="translate(-113.266 -456.001)" fill="#5e448f"/>
      </g>
    </g>
  </g>
</svg>
