<svg xmlns="http://www.w3.org/2000/svg" width="84" height="84" viewBox="0 0 84 84">
  <g id="Grupo_53458" data-name="Grupo 53458" transform="translate(-503 -2088)">
    <rect id="Rectángulo_5065" data-name="Rectángulo 5065" width="84" height="84" rx="5" transform="translate(503 2088)" fill="#5e448f"/>
    <g id="liderazgo" transform="translate(517.898 2105)">
      <g id="Grupo_53390" data-name="Grupo 53390" transform="translate(2.102 9.064)">
        <g id="Grupo_53389" data-name="Grupo 53389" transform="translate(0)">
          <path id="Trazado_99493" data-name="Trazado 99493" d="M36.318,118.431H28.893v-6.6a4.125,4.125,0,0,0-4.125-4.125h-4.95v-4.529l11.2-8a.817.817,0,0,0,.182-1.163l-2.475-3.3a.825.825,0,0,0-1.13-.182l-8.456,5.849a5.775,5.775,0,1,0-9.133,1.427H9.093a.825.825,0,0,0-.611.272L3.153,104a4.125,4.125,0,0,0,.165,5.676l4.364,4.389a.83.83,0,0,0,1.262-.107l.974-1.378v14.924a.825.825,0,0,0,.825.825h4.95a.825.825,0,0,0,.825-.825v-13.2h5.775v4.125H19.818a.825.825,0,0,0-.825.825v8.25a.825.825,0,0,0,.825.825h16.5a.825.825,0,0,0,.825-.825v-8.25A.825.825,0,0,0,36.318,118.431Zm-26.4-24.75a4.125,4.125,0,1,1,4.125,4.125A4.125,4.125,0,0,1,9.918,93.681Zm6.088,5.775-1.139,2.277L13.73,99.456Zm-6.088,8.836L8.6,106.881l1.32-1.32Zm5.775,4.364a.825.825,0,0,0-.825.825v13.2h-3.3v-23.1A.83.83,0,0,0,10.158,103l-3.3,3.3a.825.825,0,0,0,0,1.155l2.7,2.813L8.161,112.21l-3.7-3.679a2.475,2.475,0,0,1-.091-3.424l5.09-5.651h2.417l2.252,4.5a.825.825,0,0,0,1.469,0l2.384-4.76,9.9-6.856,1.493,1.988-10.865,7.763a.825.825,0,0,0-.346.668v5.775a.825.825,0,0,0,.825.825h5.775a2.475,2.475,0,0,1,2.475,2.475v6.6h-3.3v-4.95a.825.825,0,0,0-.825-.825Zm19.8,14.025H20.643v-6.6h14.85Z" transform="translate(-2.102 -87.895)" fill="#fff"/>
        </g>
      </g>
      <g id="Grupo_53392" data-name="Grupo 53392" transform="translate(36.318)">
        <g id="Grupo_53391" data-name="Grupo 53391">
          <path id="Trazado_99494" data-name="Trazado 99494" d="M347.922,6.6A5.775,5.775,0,0,1,342.147.825a.825.825,0,1,0-1.65,0A5.775,5.775,0,0,1,334.722,6.6a.825.825,0,0,0,0,1.65,5.775,5.775,0,0,1,5.775,5.775.825.825,0,1,0,1.65,0,5.775,5.775,0,0,1,5.775-5.775.825.825,0,1,0,0-1.65Zm-6.6,4.026a7.49,7.49,0,0,0-3.2-3.2,7.491,7.491,0,0,0,3.2-3.2,7.491,7.491,0,0,0,3.2,3.2A7.491,7.491,0,0,0,341.322,10.626Z" transform="translate(-333.897)" fill="#fff"/>
        </g>
      </g>
      <g id="Grupo_53394" data-name="Grupo 53394" transform="translate(27.58 20.783)">
        <g id="Grupo_53393" data-name="Grupo 53393" transform="translate(0 0)">
          <rect id="Rectángulo_5275" data-name="Rectángulo 5275" width="2.788" height="1.65" transform="translate(0 1.649) rotate(-36.251)" fill="#fff"/>
        </g>
      </g>
      <g id="Grupo_53396" data-name="Grupo 53396" transform="translate(31.71 13.358)">
        <g id="Grupo_53395" data-name="Grupo 53395" transform="translate(0 0)">
          <rect id="Rectángulo_5276" data-name="Rectángulo 5276" width="10.23" height="1.65" transform="translate(0 6.052) rotate(-36.272)" fill="#fff"/>
        </g>
      </g>
      <g id="Grupo_53398" data-name="Grupo 53398" transform="translate(31.732 9.212)">
        <g id="Grupo_53397" data-name="Grupo 53397" transform="translate(0 0)">
          <rect id="Rectángulo_5277" data-name="Rectángulo 5277" width="5.948" height="1.65" transform="translate(0 3.299) rotate(-33.692)" fill="#fff"/>
        </g>
      </g>
    </g>
  </g>
</svg>
