<svg xmlns="http://www.w3.org/2000/svg" width="84" height="84" viewBox="0 0 84 84">
  <g id="Grupo_53463" data-name="Grupo 53463" transform="translate(-961 -2218)">
    <rect id="Rectángulo_5074" data-name="Rectángulo 5074" width="84" height="84" rx="5" transform="translate(961 2218)" fill="#5e448f"/>
    <g id="servicio_1_" data-name="servicio (1)" transform="translate(973 2241)">
      <path id="Trazado_99524" data-name="Trazado 99524" d="M222.043,89.624a7.48,7.48,0,1,0-7.48-7.48A7.48,7.48,0,0,0,222.043,89.624Zm0-12.6a5.122,5.122,0,1,1-5.122,5.122A5.122,5.122,0,0,1,222.043,77.022Zm0,0" transform="translate(-192.076 -70.42)" fill="#fff"/>
      <path id="Trazado_99525" data-name="Trazado 99525" d="M49.534,184.785H46.351a10.631,10.631,0,0,0-9.634,6.273,10.4,10.4,0,0,0-5.158-1.365H28.375a10.4,10.4,0,0,0-5.135,1.352,10.559,10.559,0,0,0-9.591-6.26H10.467A10.477,10.477,0,0,0,0,195.251v10.041a1.179,1.179,0,0,0,1.179,1.179H17.91V210.2a1.178,1.178,0,0,0,1.179,1.179H40.845a1.179,1.179,0,0,0,1.179-1.179v-3.729h16.8A1.179,1.179,0,0,0,60,205.292V195.251a10.477,10.477,0,0,0-10.465-10.466Zm0,2.358c.059,0,.117,0,.175,0l-1.423,6.1a.653.653,0,0,1-.555.518h-.047a.649.649,0,0,1-.6-.523l-1.415-6.074q.339-.029.683-.029Zm-17.975,4.909c.216,0,.429.011.64.027l-1.937,6.313-1.945-6.338.058,0Zm-17.91-4.909c.08,0,.16,0,.239,0L11.921,194.3,9.958,187.16c.168-.01.337-.017.508-.017ZM2.358,195.251a8.122,8.122,0,0,1,5.288-7.6l3.1,11.252v5.211H2.358ZM13.1,204.113V198.9l3.118-11.334a8.224,8.224,0,0,1,5.06,4.908,10.439,10.439,0,0,0-3.369,7.683v3.954Zm7.167-3.953a8.122,8.122,0,0,1,5.695-7.741l3.12,10.169v6.434H20.268Zm19.4,8.862H31.441v-6.434l3.063-9.979a8.118,8.118,0,0,1,5.162,7.551Zm-.994-16.529a8.318,8.318,0,0,1,4.7-4.777l1.414,6.067a3.028,3.028,0,0,0,1.719,2.1v8.234H42.024v-3.955a10.437,10.437,0,0,0-3.352-7.667Zm18.969,11.62H48.864v-8.236a3.055,3.055,0,0,0,1.719-2.09l1.456-6.245a8.121,8.121,0,0,1,5.6,7.71Zm0,0" transform="translate(0 -169)" fill="#fff"/>
      <path id="Trazado_99526" data-name="Trazado 99526" d="M392.929,14.363A7.478,7.478,0,0,0,396.669.408V-.725A3.275,3.275,0,0,0,393.393-4a3.275,3.275,0,0,0-3.275,3.275v.677a7.479,7.479,0,0,0,2.811,14.41Zm0-2.358a5.132,5.132,0,0,1-4.8-3.33,12.229,12.229,0,0,0,2.752-.808,10.69,10.69,0,0,0,2.987-1.914,8.726,8.726,0,0,0,3.915,2.589A5.058,5.058,0,0,1,392.929,12Zm5.064-5.892a6.832,6.832,0,0,1-2.563-1.966,10.629,10.629,0,0,0,.722-1.241,5.12,5.12,0,0,1,1.841,3.208ZM392.476-.725a.917.917,0,0,1,.917-.917.917.917,0,0,1,.917.917v.256a7.48,7.48,0,0,0-1.381-.13c-.152,0-.3.006-.453.015Zm.453,2.485a5.114,5.114,0,0,1,1.1.12,8.37,8.37,0,0,1-6.193,4.459,5.13,5.13,0,0,1,5.094-4.58Zm0,0" transform="translate(-345.053)" fill="#fff"/>
      <path id="Trazado_99527" data-name="Trazado 99527" d="M51.152,43.421a7.489,7.489,0,0,0,7.48-7.458v-.023a7.48,7.48,0,1,0-7.48,7.481Zm0-12.6a5.122,5.122,0,1,1-5.122,5.123A5.128,5.128,0,0,1,51.152,30.819Zm0,0" transform="translate(-39.095 -29.059)" fill="#fff"/>
      <path id="Trazado_99528" data-name="Trazado 99528" d="M488.406,268.5h-2.227a1.179,1.179,0,1,0,0,2.358h2.227a1.179,1.179,0,0,0,0-2.358Zm0,0" transform="translate(-434.171 -243.941)" fill="#fff"/>
      <path id="Trazado_99529" data-name="Trazado 99529" d="M319.929,318.5a1.179,1.179,0,1,0,0,2.358h2.227a1.179,1.179,0,0,0,0-2.358Zm0,0" transform="translate(-285.344 -288.701)" fill="#fff"/>
      <path id="Trazado_99530" data-name="Trazado 99530" d="M145.311,265.929a1.179,1.179,0,0,0-1.179-1.179h-1.7a1.179,1.179,0,1,0,0,2.358h1.7A1.179,1.179,0,0,0,145.311,265.929Zm0,0" transform="translate(-126.446 -240.584)" fill="#fff"/>
    </g>
  </g>
</svg>
